<svg width="32" height="32" viewBox="0 0 32 32" fill="none" xmlns="http://www.w3.org/2000/svg">
  <rect width="32" height="32" rx="6" fill="#6366f1"/>
  <path d="M16 8C13.79 8 12 9.79 12 12V14H10C9.45 14 9 14.45 9 15V23C9 23.55 9.45 24 10 24H22C22.55 24 23 23.55 23 23V15C23 14.45 22.55 14 22 14H20V12C20 9.79 18.21 8 16 8ZM16 10C17.1 10 18 10.9 18 12V14H14V12C14 10.9 14.9 10 16 10ZM16 17C16.55 17 17 17.45 17 18C17 18.31 16.84 18.58 16.59 18.73L17 20H15L15.41 18.73C15.16 18.58 15 18.31 15 18C15 17.45 15.45 17 16 17Z" fill="white"/>
</svg> 