<svg width="200" height="200" viewBox="0 0 200 200" fill="none" xmlns="http://www.w3.org/2000/svg">
  <path d="M100 40C85.67 40 74 51.67 74 66V86H58C52.48 86 48 90.48 48 96V154C48 159.52 52.48 164 58 164H142C147.52 164 152 159.52 152 154V96C152 90.48 147.52 86 142 86H126V66C126 51.67 114.33 40 100 40ZM100 50C108.84 50 116 57.16 116 66V86H84V66C84 57.16 91.16 50 100 50ZM100 110C105.52 110 110 114.48 110 120C110 123.31 108.16 126.16 105.46 127.54L108 140H92L94.54 127.54C91.84 126.16 90 123.31 90 120C90 114.48 94.48 110 100 110Z" fill="#333333"/>
</svg> 